# Icosidodecahedron shell mesh for ANYmal-S
# Circumradius: 0.9600m

v 0.00000000 0.00000000 0.96000000
v 0.96000000 0.00000000 0.00000000
v 0.00000000 0.96000000 0.00000000
v 0.00000000 0.00000000 -0.96000000
v -0.96000000 0.00000000 0.00000000
v 0.00000000 -0.96000000 0.00000000
v 0.29665631 0.48000000 0.77665631
v 0.77665631 0.29665631 0.48000000
v 0.48000000 0.77665631 0.29665631
v 0.29665631 0.48000000 -0.77665631
v -0.77665631 0.29665631 0.48000000
v 0.48000000 -0.77665631 0.29665631
v 0.29665631 -0.48000000 0.77665631
v 0.77665631 0.29665631 -0.48000000
v -0.48000000 0.77665631 0.29665631
v 0.29665631 -0.48000000 -0.77665631
v -0.77665631 0.29665631 -0.48000000
v -0.48000000 -0.77665631 0.29665631
v -0.29665631 0.48000000 0.77665631
v 0.77665631 -0.29665631 0.48000000
v 0.48000000 0.77665631 -0.29665631
v -0.29665631 0.48000000 -0.77665631
v -0.77665631 -0.29665631 0.48000000
v 0.48000000 -0.77665631 -0.29665631
v -0.29665631 -0.48000000 0.77665631
v 0.77665631 -0.29665631 -0.48000000
v -0.48000000 0.77665631 -0.29665631
v -0.29665631 -0.48000000 -0.77665631
v -0.77665631 -0.29665631 -0.48000000
v -0.48000000 -0.77665631 -0.29665631

f 16 28 4
f 30 6 18
f 30 29 28
f 25 23 18
f 11 5 23
f 24 12 6
f 17 29 5
f 13 12 20
f 13 1 25
f 8 20 2
f 19 1 7
f 26 24 16
f 22 10 4
f 27 22 17
f 9 7 8
f 9 21 3
f 14 2 26
f 14 10 21
f 15 11 19
f 15 3 27
f 30 5 29
f 30 18 23
f 30 23 5
f 24 28 16
f 24 6 30
f 24 30 28
f 13 25 18
f 13 18 6
f 13 6 12
f 8 1 13
f 8 7 1
f 8 13 20
f 19 25 1
f 19 23 25
f 19 11 23
f 26 20 12
f 26 2 20
f 26 12 24
f 22 28 29
f 22 4 28
f 22 29 17
f 27 3 21
f 27 21 10
f 27 10 22
f 14 21 9
f 14 8 2
f 14 9 8
f 14 26 16
f 14 16 4
f 14 4 10
f 15 9 3
f 15 19 7
f 15 7 9
f 15 27 17
f 15 5 11
f 15 17 5
