# Geodesic sphere (icosphere level 1) for ANYmal-S
# Circumradius: 0.9600m

v 0.00000000 -0.50470187 -0.81662478
v -0.81662478 0.00000000 -0.50470187
v -0.50470187 -0.81662478 0.00000000
v 0.00000000 -0.50470187 0.81662478
v -0.81662478 0.00000000 0.50470187
v 0.50470187 -0.81662478 0.00000000
v 0.00000000 0.50470187 -0.81662478
v 0.81662478 0.00000000 -0.50470187
v -0.50470187 0.81662478 0.00000000
v 0.00000000 0.50470187 0.81662478
v 0.81662478 0.00000000 0.50470187
v 0.50470187 0.81662478 0.00000000
v -0.48000000 -0.29665631 -0.77665631
v -0.77665631 -0.48000000 -0.29665631
v -0.29665631 -0.77665631 -0.48000000
v -0.48000000 0.29665631 -0.77665631
v 0.00000000 0.00000000 -0.96000000
v 0.00000000 -0.96000000 0.00000000
v 0.29665631 -0.77665631 -0.48000000
v 0.77665631 -0.48000000 -0.29665631
v 0.48000000 -0.29665631 -0.77665631
v 0.48000000 0.29665631 -0.77665631
v -0.77665631 -0.48000000 0.29665631
v -0.96000000 0.00000000 0.00000000
v -0.77665631 0.48000000 0.29665631
v -0.77665631 0.48000000 -0.29665631
v -0.29665631 0.77665631 -0.48000000
v -0.29665631 -0.77665631 0.48000000
v -0.48000000 -0.29665631 0.77665631
v 0.29665631 -0.77665631 0.48000000
v -0.48000000 0.29665631 0.77665631
v 0.00000000 0.00000000 0.96000000
v 0.77665631 -0.48000000 0.29665631
v 0.48000000 -0.29665631 0.77665631
v 0.48000000 0.29665631 0.77665631
v -0.29665631 0.77665631 0.48000000
v 0.96000000 0.00000000 0.00000000
v 0.77665631 0.48000000 -0.29665631
v 0.29665631 0.77665631 -0.48000000
v 0.00000000 0.96000000 0.00000000
v 0.77665631 0.48000000 0.29665631
v 0.29665631 0.77665631 0.48000000

f 15 13 1
f 13 14 2
f 14 15 3
f 15 14 13
f 1 13 17
f 2 16 13
f 7 17 16
f 13 16 17
f 19 15 1
f 15 18 3
f 18 19 6
f 19 18 15
f 21 19 1
f 19 20 6
f 20 21 8
f 21 20 19
f 1 17 21
f 7 22 17
f 8 21 22
f 17 22 21
f 2 14 24
f 3 23 14
f 5 24 23
f 14 23 24
f 2 24 26
f 5 25 24
f 9 26 25
f 24 25 26
f 26 16 2
f 16 27 7
f 27 26 9
f 26 27 16
f 3 28 23
f 4 29 28
f 5 23 29
f 28 29 23
f 18 28 3
f 28 30 4
f 30 18 6
f 18 30 28
f 32 29 4
f 29 31 5
f 31 32 10
f 32 31 29
f 4 30 34
f 6 33 30
f 11 34 33
f 30 33 34
f 34 32 4
f 32 35 10
f 35 34 11
f 34 35 32
f 31 25 5
f 25 36 9
f 36 31 10
f 31 36 25
f 6 20 33
f 8 37 20
f 11 33 37
f 20 37 33
f 39 22 7
f 22 38 8
f 38 39 12
f 39 38 22
f 7 27 39
f 9 40 27
f 12 39 40
f 27 40 39
f 38 37 8
f 37 41 11
f 41 38 12
f 38 41 37
f 9 36 40
f 10 42 36
f 12 40 42
f 36 42 40
f 10 35 42
f 11 41 35
f 12 42 41
f 35 41 42
